<?xml version="1.0" encoding="UTF-8"?>
<svg version="1.1" xmlns="http://www.w3.org/2000/svg" width="500" height="500">
<path d="M0 0 C165 0 330 0 500 0 C500 165 500 330 500 500 C335 500 170 500 0 500 C0 335 0 170 0 0 Z " fill="#030303" transform="translate(0,0)"/>
<path d="M0 0 C1.25146317 -0.00686325 2.50292633 -0.0137265 3.79231262 -0.02079773 C7.20587716 -0.03590662 10.61889296 -0.03757498 14.03244996 -0.03185534 C16.8924459 -0.02875126 19.75239313 -0.03486968 22.61238211 -0.04089409 C29.36630427 -0.05491374 36.12009987 -0.05340048 42.87402344 -0.04199219 C49.81666849 -0.03052345 56.75892667 -0.04457124 63.70152074 -0.07138866 C69.68399754 -0.09362301 75.6663536 -0.10016543 81.64886874 -0.09431225 C85.21226849 -0.09095865 88.77542058 -0.09324979 92.33878517 -0.11056328 C96.3184559 -0.12905733 100.29765979 -0.114766 104.27734375 -0.09765625 C105.44082336 -0.10732422 106.60430298 -0.11699219 107.80303955 -0.12695312 C119.36295609 -0.02336118 127.83813888 2.97076523 136.16870117 11.03686523 C143.44461311 18.99571476 145.64011393 26.87130826 145.60018921 37.45466614 C145.60472032 38.34380587 145.60925143 39.2329456 145.61391985 40.14902896 C145.6265402 43.11665867 145.62494501 46.0841043 145.62329102 49.05175781 C145.62927772 51.18432348 145.6360836 53.31688697 145.64364624 55.44944763 C145.66129856 61.23465563 145.66600129 67.01980445 145.66727781 72.80503678 C145.66870036 76.421526 145.67297193 80.03800022 145.67827225 83.6544857 C145.69676974 96.27715382 145.70494318 108.89977972 145.70336914 121.52246094 C145.70216771 133.27915128 145.72327122 145.03565806 145.75485647 156.79230195 C145.7810273 166.89443537 145.7917361 176.99650886 145.79045832 187.09867591 C145.78994894 193.12851555 145.79561902 199.15819201 145.81681442 205.18799782 C145.83621031 210.86060594 145.83631179 216.5328954 145.82178116 222.20551491 C145.81969369 224.28313666 145.82439023 226.36077844 145.83650208 228.43836594 C145.91624873 243.06937367 145.25373511 253.18391535 134.69995117 264.20483398 C125.27232864 272.9634998 116.30024155 273.69508284 103.84521484 273.48486328 C102.48112644 273.46958634 101.11702515 273.45542566 99.75291443 273.44229126 C96.82550104 273.41322327 93.89820024 273.37921871 90.97087669 273.34222984 C86.33433921 273.28665197 81.69792771 273.26046397 77.06111145 273.24165344 C76.27663909 273.23838521 75.49216672 273.23511698 74.68392247 273.23174971 C73.08035006 273.22521934 71.47677718 273.21880142 69.87320387 273.21249354 C59.08703642 273.16987817 48.30227215 273.11246853 37.51708984 272.95507812 C30.22892618 272.84893243 22.94253048 272.79627659 15.65357 272.80503303 C11.80176933 272.80759543 7.95438909 272.78351485 4.10353661 272.69403648 C-11.05169783 271.59673167 -11.05169783 271.59673167 -24.88256454 275.90561295 C-27.76954232 278.91545677 -29.51844829 282.05072351 -31.09379578 285.8865509 C-32.81166987 289.72694084 -33.8750224 290.76201615 -37.66723633 292.40405273 C-41.9898476 293.15266139 -45.92303722 292.75918918 -49.66723633 290.40405273 C-50.89648438 288.85449219 -50.89648438 288.85449219 -51.92895508 287.01733398 C-52.32663086 286.32446289 -52.72430664 285.6315918 -53.1340332 284.91772461 C-53.73828125 283.82814453 -53.73828125 283.82814453 -54.35473633 282.71655273 C-55.14907555 281.31611267 -55.94470845 279.91640581 -56.74145508 278.51733398 C-57.18626221 277.73261719 -57.63106934 276.94790039 -58.08935547 276.1394043 C-60.36125846 272.20092354 -62.71088877 268.30989025 -65.05627441 264.41496277 C-67.88934267 259.70764198 -70.69753515 254.9862669 -73.49145508 250.25561523 C-74.30068003 248.88711392 -75.10992485 247.51862435 -75.91918945 246.15014648 C-77.14444231 244.07777788 -78.36892828 242.00497265 -79.59130859 239.9309082 C-80.80571519 237.87110164 -82.02289474 235.81296686 -83.24145508 233.75561523 C-83.6259079 233.10465881 -84.01036072 232.45370239 -84.40646362 231.78302002 C-86.96920622 227.47741302 -89.69134143 223.33651447 -92.68212891 219.31176758 C-93.97245793 216.81297427 -93.98744468 215.18550753 -93.66723633 212.40405273 C-92.75610352 210.39379883 -92.75610352 210.39379883 -91.46411133 208.42749023 C-90.98385498 207.68305664 -90.50359863 206.93862305 -90.00878906 206.17163086 C-89.48357666 205.38208008 -88.95836426 204.5925293 -88.41723633 203.77905273 C-87.31910205 202.08925912 -86.22146077 200.39914505 -85.12426758 198.70874023 C-84.55530762 197.83958984 -83.98634766 196.97043945 -83.40014648 196.07495117 C-81.67276355 193.41257173 -79.98234528 190.73035921 -78.30395508 188.03686523 C-77.49909668 186.74643311 -77.49909668 186.74643311 -76.67797852 185.42993164 C-75.64687965 183.77447713 -74.61751844 182.11793877 -73.59008789 180.46020508 C-73.11925781 179.7094873 -72.64842773 178.95876953 -72.16333008 178.18530273 C-71.54735962 177.19626953 -71.54735962 177.19626953 -70.91894531 176.18725586 C-69.63238276 174.35439983 -68.36574107 172.86418055 -66.66723633 171.40405273 C-64.17895508 170.99780273 -64.17895508 170.99780273 -61.66723633 171.40405273 C-54.88811996 177.119467 -50.38813079 187.07457084 -45.81469727 194.62402344 C-44.52391174 196.62638882 -43.10379277 198.50436476 -41.66723633 200.40405273 C-41.66576977 199.53290423 -41.66430321 198.66175573 -41.66279221 197.76420879 C-41.62569303 176.53840718 -41.56663701 155.31276486 -41.48333359 134.0870924 C-41.44357412 123.82238195 -41.41116591 113.55774783 -41.39624023 103.29296875 C-41.3832077 94.34311205 -41.35620213 85.3934235 -41.31262326 76.44366151 C-41.2900445 71.70758689 -41.2743235 66.97171938 -41.27535248 62.23558617 C-41.27610121 57.77116026 -41.25806519 53.30719159 -41.2260685 48.84288406 C-41.21760038 47.21078008 -41.21579843 45.57862463 -41.22143364 43.94650841 C-41.26147004 30.56030989 -39.47437782 19.30772121 -29.66723633 9.40405273 C-20.3756579 1.76691004 -11.76660031 -0.04529006 0 0 Z " fill="#FBC90A" transform="translate(317.667236328125,84.595947265625)"/>
<path d="M0 0 C1.72445595 -0.0129007 1.72445595 -0.0129007 3.48374939 -0.02606201 C5.37736458 -0.03245193 5.37736458 -0.03245193 7.30923462 -0.03897095 C8.65130322 -0.04687398 9.9933697 -0.05514305 11.33543396 -0.06375122 C15.74285866 -0.08994231 20.15029275 -0.10527328 24.55776978 -0.11953735 C26.07541535 -0.12489773 27.59306087 -0.13027524 29.11070633 -0.13566971 C35.42276626 -0.15729179 41.73482366 -0.17602935 48.04691124 -0.1872921 C57.09241288 -0.20353891 66.13748553 -0.23674159 75.18282545 -0.29369295 C81.5438457 -0.33237856 87.90475113 -0.35192296 94.26588595 -0.35721266 C98.06513114 -0.36086732 101.86391848 -0.37290015 105.66303635 -0.4053154 C109.23696167 -0.43537343 112.81015153 -0.44171669 116.38417625 -0.42993164 C118.31914016 -0.42960547 120.25405852 -0.45408499 122.18885803 -0.47930908 C123.92177345 -0.46683136 123.92177345 -0.46683136 125.68969727 -0.45410156 C127.1923668 -0.45906678 127.1923668 -0.45906678 128.7253933 -0.46413231 C132.6192914 0.41211341 134.08676864 1.99742255 136.47183228 5.15390015 C137.09824467 8.28798008 137.09824467 8.28798008 137.10002136 11.87840271 C137.10711575 12.54138805 137.11421014 13.2043734 137.12151951 13.8874492 C137.13907746 16.10194299 137.12100902 18.31467626 137.10293579 20.52914429 C137.10807548 22.11943866 137.11535713 23.70972734 137.12461853 25.30000305 C137.14313325 29.61410212 137.13019441 33.9275832 137.11052823 38.24165654 C137.09414373 42.75614852 137.10295421 47.27060129 137.10804749 51.78511047 C137.11256821 59.36525345 137.09669884 66.94514963 137.0687561 74.52523804 C137.03669268 83.29078303 137.03672443 92.05588321 137.05397087 100.82145983 C137.06982922 109.25289623 137.06310763 117.68416943 137.04603386 126.11559868 C137.03915856 129.70446551 137.04020066 133.29320171 137.04757881 136.88206673 C137.05523473 141.10687643 137.04313865 145.33117925 137.0157299 149.55590248 C137.00883807 151.10710393 137.00875668 152.65835266 137.01594543 154.20955276 C137.02462313 156.32572958 137.00871625 158.44033588 136.98649597 160.55638123 C136.98368905 161.74084367 136.98088213 162.92530611 136.97799015 164.14566135 C136.47183228 167.15390015 136.47183228 167.15390015 134.80023098 169.53491974 C131.88589872 171.56131102 130.23703253 171.65438293 126.70278931 171.65510559 C125.52508972 171.66493973 124.34739014 171.67477386 123.13400269 171.68490601 C121.84556458 171.67523804 120.55712646 171.66557007 119.22964478 171.65560913 C117.8562464 171.65939299 116.48285185 171.66489359 115.10946655 171.67198181 C111.38211874 171.68594529 107.65523206 171.67476077 103.92790985 171.6582706 C100.02734514 171.64442129 96.12680723 171.65088004 92.22622681 171.65440369 C85.67585823 171.65710591 79.12567288 171.64362925 72.5753479 171.62045288 C65.00217977 171.59384297 57.42931801 171.59209594 49.85611916 171.60384125 C42.57106227 171.61462041 35.2861162 171.6084309 28.00106812 171.59428596 C24.90065898 171.58852734 21.80033098 171.58860785 18.69992065 171.59335136 C15.0489112 171.59812369 11.39823721 171.58800928 7.74729156 171.56639671 C5.76809797 171.55817746 3.78886044 171.56467916 1.80966187 171.57159424 C0.63196228 171.56168961 -0.5457373 171.55178497 -1.75912476 171.5415802 C-2.78265045 171.5391503 -3.80617615 171.53672041 -4.86071777 171.53421688 C-8.04843904 171.07972148 -9.38653842 170.57166815 -11.52816772 168.15390015 C-12.02873898 165.23188782 -12.02873898 165.23188782 -12.02937317 161.58724976 C-12.03767476 160.58202601 -12.03767476 160.58202601 -12.04614407 159.55649471 C-12.05978122 157.30603631 -12.0447662 155.05668116 -12.02987671 152.8062439 C-12.03365881 151.19492114 -12.03915794 149.58360163 -12.04624939 147.97229004 C-12.0602357 143.59210297 -12.04901214 139.2123073 -12.03253818 134.83214188 C-12.01871007 130.25311203 -12.02514519 125.67410543 -12.02867126 121.09506226 C-12.03137517 113.40464961 -12.01788236 105.71439288 -11.99472046 98.02401733 C-11.96810956 89.12676907 -11.96636294 80.22978155 -11.97810882 71.33250713 C-11.98887972 62.78149255 -11.98270495 54.2305725 -11.96855354 45.67956543 C-11.96278775 42.03686291 -11.96288107 38.39422943 -11.96761894 34.75152588 C-11.97238349 30.46363024 -11.96230892 26.17602093 -11.94066429 21.88817978 C-11.93508909 20.31236614 -11.93463783 18.73652502 -11.93961716 17.16070938 C-11.94555174 15.01366966 -11.93310145 12.86751076 -11.91584778 10.72055054 C-11.91341788 9.51781998 -11.91098799 8.31508942 -11.90848446 7.07591248 C-11.52816772 4.15390015 -11.52816772 4.15390015 -10.19143772 2.3059845 C-6.8882082 0.01796208 -3.88545402 0.02162873 0 0 Z " fill="#040403" transform="translate(307.5281677246094,125.84609985351563)"/>
<path d="M0 0 C2.25663956 -0.017217 4.51181503 -0.06110521 6.76806641 -0.10522461 C8.20425356 -0.11535158 9.64045315 -0.12386768 11.07666016 -0.13061523 C13.03708252 -0.15248901 13.03708252 -0.15248901 15.03710938 -0.17480469 C18.39697266 0.29516602 18.39697266 0.29516602 20.82348633 1.82055664 C23.0077314 5.25570142 22.95254357 8.37115584 22.89306641 12.31469727 C22.89452164 13.09149338 22.89597687 13.86828949 22.8974762 14.66862488 C22.89581877 16.31020866 22.88427478 17.95180824 22.86352539 19.59326172 C22.83468856 22.08898035 22.84289511 24.58255713 22.85595703 27.07836914 C22.84971521 28.67798873 22.84132081 30.27760165 22.83056641 31.87719727 C22.83350204 32.6159761 22.83643768 33.35475494 22.83946228 34.11592102 C22.7021779 41.77131035 19.46038226 47.46960624 15.70947266 54.04516602 C15.33209961 54.7114502 14.95472656 55.37773437 14.56591797 56.06420898 C8.64517723 66.44732338 2.48797423 76.69501331 -3.62353516 86.96655273 C-6.49862907 91.80116427 -9.36542816 96.64064756 -12.22802734 101.48266602 C-12.74977539 102.36519043 -13.27152344 103.24771484 -13.80908203 104.15698242 C-18.3573735 111.8604582 -22.86239589 119.58890839 -27.36425781 127.31958008 C-32.90905476 136.83508744 -38.51343833 146.31484783 -44.12304688 155.79223633 C-46.35131058 159.56065591 -48.57173783 163.33366251 -50.79052734 167.10766602 C-51.19102295 167.78869385 -51.59151855 168.46972168 -52.00415039 169.17138672 C-54.04660133 172.6452564 -56.0872439 176.1201806 -58.12646484 179.59594727 C-60.6129191 183.83241125 -63.10532278 188.0653255 -65.60302734 192.29516602 C-66.02567871 193.01140137 -66.44833008 193.72763672 -66.88378906 194.46557617 C-68.11997329 196.55674453 -69.36069638 198.64514476 -70.60302734 200.73266602 C-71.16389038 201.68230225 -71.16389038 201.68230225 -71.73608398 202.65112305 C-73.21122614 205.12050897 -74.56016539 207.25230406 -76.60302734 209.29516602 C-79.97802734 209.73266602 -79.97802734 209.73266602 -83.60302734 209.29516602 C-87.91785224 204.93492191 -90.595377 199.1845851 -93.54052734 193.85766602 C-97.89134522 186.07502705 -102.29870818 178.33560453 -106.85302734 170.67016602 C-107.37896484 169.78449951 -107.90490234 168.89883301 -108.44677734 167.98632812 C-109.56213728 166.1081322 -110.67753566 164.22995912 -111.79296875 162.35180664 C-115.22736152 156.55215767 -118.63318812 150.73573348 -122.04052734 144.92016602 C-122.40238129 144.30278564 -122.76423523 143.68540527 -123.13705444 143.04931641 C-128.56285765 133.79155197 -133.96757596 124.52164164 -139.36669922 115.24829102 C-143.71990901 107.78280923 -148.12494328 100.34888684 -152.54052734 92.92016602 C-157.81762088 84.04205292 -163.02450646 75.12772996 -168.16552734 66.17016602 C-173.13697479 57.50957074 -178.19936293 48.91107168 -183.35302734 40.35766602 C-184.58881266 38.30043936 -185.82449209 36.24314909 -187.06005859 34.18579102 C-188.80993269 31.27267273 -190.56267902 28.36157906 -192.32714844 25.45727539 C-193.91040867 22.84780213 -195.47719339 20.22911015 -197.04052734 17.60766602 C-197.50749023 16.84784424 -197.97445312 16.08802246 -198.45556641 15.30517578 C-200.88791167 11.1890072 -202.37954325 8.22789088 -201.60302734 3.29516602 C-199.05904599 0.75118466 -198.12007975 1.02950458 -194.59008789 0.98876953 C-193.02287239 0.96478844 -193.02287239 0.96478844 -191.42399597 0.94032288 C-190.29069351 0.93496017 -189.15739105 0.92959747 -187.98974609 0.92407227 C-186.24719292 0.91052956 -186.24719292 0.91052956 -184.46943665 0.89671326 C-182.00723865 0.88218254 -179.54500179 0.87331705 -177.08276367 0.86962891 C-173.31606794 0.85774659 -169.55101697 0.80859677 -165.78466797 0.75805664 C-163.39470202 0.74859137 -161.00472599 0.74135683 -158.61474609 0.73657227 C-157.48751633 0.71703995 -156.36028656 0.69750763 -155.19889832 0.67738342 C-147.4009946 0.72233745 -147.4009946 0.72233745 -143.57788086 3.46679688 C-141.59683281 6.30403778 -139.72004429 9.10742212 -137.99365234 12.10766602 C-137.66983078 12.66507477 -137.34600922 13.22248352 -137.01237488 13.79678345 C-135.95205787 15.62551928 -134.90268222 17.46029328 -133.85302734 19.29516602 C-133.10264228 20.5930128 -132.35140565 21.89036757 -131.59936523 23.18725586 C-130.03816016 25.88114119 -128.48062917 28.57709899 -126.92578125 31.2746582 C-123.67577774 36.90759118 -120.38580449 42.51700822 -117.09384155 48.12548828 C-116.03873769 49.9232153 -114.98449642 51.72144583 -113.93041992 53.51977539 C-109.32280105 61.37840793 -104.70137902 69.22883419 -100.06204224 77.06878662 C-99.08410925 78.72151177 -98.10709658 80.37478137 -97.13012695 82.02807617 C-94.57555623 86.33880855 -92.01855681 90.64443783 -89.36132812 94.89282227 C-88.99048599 95.48728149 -88.61964386 96.08174072 -88.23756409 96.69421387 C-87.19295312 98.36387479 -86.14241426 100.02982266 -85.09155273 101.69555664 C-83.60302734 104.29516602 -83.60302734 104.29516602 -83.60302734 106.29516602 C-80.47105674 105.76010182 -78.27363372 105.09645823 -76.19238281 102.60961914 C-74.72074742 100.29651429 -73.36859681 97.94366717 -72.04052734 95.54516602 C-70.98067632 93.70529645 -69.92077894 91.86545359 -68.86083984 90.02563477 C-68.32104492 89.07350098 -67.78125 88.12136719 -67.22509766 87.14038086 C-65.18809388 83.56734624 -63.09025839 80.03272961 -60.98681641 76.49853516 C-55.73685914 67.67491991 -50.55773281 58.80931914 -45.36932373 49.94943237 C-42.48443932 45.02423692 -39.59620215 40.10100797 -36.70751953 35.17803955 C-35.58749092 33.26868044 -34.46828343 31.35884158 -33.34912109 29.44897461 C-31.51610381 26.32201021 -29.67870263 23.19765821 -27.83828735 20.07504272 C-26.81605566 18.33853211 -25.79774715 16.59971391 -24.77954102 14.86083984 C-24.15797119 13.80791748 -23.53640137 12.75499512 -22.89599609 11.67016602 C-22.35483154 10.74977539 -21.81366699 9.82938477 -21.25610352 8.88110352 C-15.24475467 -0.52256019 -10.48656105 0.05581593 0 0 Z " fill="#FDCA0B" transform="translate(237.60302734375,167.704833984375)"/>
<path d="M0 0 C0.89726303 -0.00145523 1.79452606 -0.00291046 2.71897888 -0.00440979 C4.61273451 -0.00275204 6.50650377 0.00879538 8.40014648 0.02954102 C11.3018498 0.05852638 14.20172947 0.05014172 17.10351562 0.03710938 C18.94401931 0.043346 20.78451722 0.05173634 22.625 0.0625 C23.49379288 0.05956436 24.36258575 0.05662872 25.25770569 0.05360413 C26.46927589 0.07263039 26.46927589 0.07263039 27.70532227 0.09204102 C28.41495621 0.097444 29.12459015 0.10284698 29.85572815 0.1084137 C32.35767205 0.62151748 33.23814615 1.45515407 34.74609375 3.49609375 C35.05673395 6.54430935 35.1902196 9.38387292 35.1796875 12.43359375 C35.18492935 13.31007568 35.1901712 14.18655762 35.1955719 15.08959961 C35.20199369 16.94220928 35.20065305 18.79485971 35.19213867 20.64746094 C35.18362474 23.48576216 35.21239286 26.32205376 35.24414062 29.16015625 C35.24575259 30.95963481 35.24517519 32.75911695 35.2421875 34.55859375 C35.25903847 35.83367798 35.25903847 35.83367798 35.27622986 37.13452148 C35.20835302 42.85730754 35.20835302 42.85730754 33.27758789 45.52539062 C29.44603278 46.994603 25.81915679 46.96386915 21.74609375 46.96484375 C20.87339844 46.97245728 20.00070313 46.9800708 19.1015625 46.98791504 C17.25914365 46.99870531 15.41666369 47.00157349 13.57421875 46.99707031 C10.75547504 46.99609699 7.93944516 47.03774849 5.12109375 47.08203125 C3.32943276 47.0872377 1.53776231 47.08992645 -0.25390625 47.08984375 C-1.09566406 47.10623901 -1.93742188 47.12263428 -2.8046875 47.13952637 C-6.74259571 47.09300137 -8.63209013 46.99012546 -11.78320312 44.48657227 C-13.67416084 40.64156213 -13.82921865 37.25023352 -13.78515625 33.0546875 C-13.78898315 32.24999527 -13.79281006 31.44530304 -13.79675293 30.6162262 C-13.7994665 28.92097721 -13.79214417 27.22568595 -13.77539062 25.53051758 C-13.75394283 22.93801587 -13.77522325 20.34827616 -13.80078125 17.75585938 C-13.79813842 16.10546265 -13.79301437 14.45506764 -13.78515625 12.8046875 C-13.79730164 11.64518837 -13.79730164 11.64518837 -13.80969238 10.46226501 C-13.75258383 7.18155627 -13.46679365 4.86020659 -11.79907227 2.0078125 C-7.94121948 -0.28358553 -4.40970969 -0.05715318 0 0 Z " fill="#FCCB0B" transform="translate(229.25390625,85.50390625)"/>
<path d="M0 0 C1.06669922 0.00322266 2.13339844 0.00644531 3.23242188 0.00976562 C4.29525391 -0.00634766 5.35808594 -0.02246094 6.453125 -0.0390625 C7.98163086 -0.0400293 7.98163086 -0.0400293 9.54101562 -0.04101562 C10.4761499 -0.04399658 11.41128418 -0.04697754 12.37475586 -0.05004883 C14.79492188 0.32226562 14.79492188 0.32226562 16.59838867 1.54614258 C18.15280723 3.85350741 18.18226019 5.33189016 18.19335938 8.10351562 C18.19916016 9.48990234 18.19916016 9.48990234 18.20507812 10.90429688 C18.19347656 11.86722656 18.181875 12.83015625 18.16992188 13.82226562 C18.18152344 14.78519531 18.193125 15.748125 18.20507812 16.74023438 C18.20121094 17.66449219 18.19734375 18.58875 18.19335938 19.54101562 C18.18997559 20.38599609 18.1865918 21.23097656 18.18310547 22.1015625 C17.79492188 24.32226562 17.79492188 24.32226562 16.59838867 26.09838867 C14.15350251 27.75754859 12.48248638 27.69492349 9.54101562 27.68554688 C8.52201172 27.68490234 7.50300781 27.68425781 6.453125 27.68359375 C5.39029297 27.66748047 4.32746094 27.65136719 3.23242188 27.63476562 C1.63237305 27.63959961 1.63237305 27.63959961 0 27.64453125 C-7.93811284 27.58923091 -7.93811284 27.58923091 -10.20507812 25.32226562 C-10.46386719 23.015625 -10.46386719 23.015625 -10.47070312 20.16601562 C-10.47328125 19.14378906 -10.47585937 18.1215625 -10.47851562 17.06835938 C-10.46691406 15.46154297 -10.46691406 15.46154297 -10.45507812 13.82226562 C-10.4628125 12.75105469 -10.47054687 11.67984375 -10.47851562 10.57617188 C-10.4759375 9.55394531 -10.47335938 8.53171875 -10.47070312 7.47851562 C-10.46844727 6.53814453 -10.46619141 5.59777344 -10.46386719 4.62890625 C-9.80699915 -1.22589489 -4.60585074 0.03208636 0 0 Z " fill="#F9CA0A" transform="translate(188.205078125,140.677734375)"/>
<path d="M0 0 C4.19905641 4.65300845 5.36619655 7.53300542 5.27734375 13.68359375 C4.68832809 18.60311891 1.85348325 21.26290083 -1.75 24.375 C-5.73234901 26.36617451 -8.63448785 26.86437141 -13 26 C-17.30742759 23.76345106 -20.64038378 21.26546009 -23 17 C-23.83209813 12.37324744 -24.08673654 8.03266669 -21.82421875 3.80078125 C-15.80774292 -3.614875 -8.25278634 -5.20284356 0 0 Z " fill="#080803" transform="translate(379,315)"/>
<path d="M0 0 C0.85948746 -0.0033284 1.71897491 -0.0066568 2.60450745 -0.01008606 C4.42619286 -0.01515895 6.24788761 -0.01749427 8.06958008 -0.01733398 C10.86359915 -0.01951928 13.65722282 -0.03766769 16.45117188 -0.05664062 C18.21744656 -0.05957465 19.98372313 -0.06155939 21.75 -0.0625 C23.00942665 -0.07327827 23.00942665 -0.07327827 24.29429626 -0.08427429 C30.21258444 -0.06085306 30.21258444 -0.06085306 32.44140625 2.16796875 C32.69140625 4.66796875 32.69140625 4.66796875 32.44140625 7.16796875 C29.81309114 9.79628386 27.8993233 9.42744243 24.31994629 9.47151184 C23.06522522 9.47014473 23.06522522 9.47014473 21.78515625 9.46875 C20.49804749 9.47517769 20.49804749 9.47517769 19.18493652 9.48173523 C17.36923099 9.48748283 15.55350243 9.48797563 13.73779297 9.48364258 C10.95240226 9.48048123 8.16807188 9.50394053 5.3828125 9.52929688 C3.6210951 9.53156961 1.85937482 9.53227349 0.09765625 9.53125 C-0.73882446 9.54045975 -1.57530518 9.54966949 -2.43713379 9.55915833 C-4.78320312 9.5402832 -4.78320312 9.5402832 -8.55859375 9.16796875 C-10.55859375 6.16796875 -10.55859375 6.16796875 -10.24609375 3.54296875 C-8.78263758 -1.51260713 -4.50519525 0.00595679 0 0 Z " fill="#060503" transform="translate(358.55859375,102.83203125)"/>
</svg>
